<svg xmlns="http://www.w3.org/2000/svg" viewBox="0 0 900 600">
  <!-- Background -->
  <rect width="900" height="600" fill="#f8f9fa"/>
  
  <!-- Title -->
  <text x="450" y="40" font-family="Arial" font-size="24" text-anchor="middle" font-weight="bold">Atlan Release Management Architecture</text>
  
  <!-- Legend -->
  <rect x="720" y="80" width="20" height="20" fill="#ADD8E6" stroke="#000" stroke-width="1"/>
  <text x="750" y="95" font-family="Arial" font-size="14">Existing Components</text>
  
  <rect x="720" y="110" width="20" height="20" fill="#90EE90" stroke="#000" stroke-width="1"/>
  <text x="750" y="125" font-family="Arial" font-size="14">New Components</text>
  
  <rect x="720" y="140" width="20" height="20" fill="#FFD700" stroke="#000" stroke-width="1"/>
  <text x="750" y="155" font-family="Arial" font-size="14">Optimization Focus</text>
  
  <!-- Developer Zone -->
  <rect x="50" y="80" width="200" height="80" rx="10" ry="10" fill="#ADD8E6" stroke="#000" stroke-width="2"/>
  <text x="150" y="110" font-family="Arial" font-size="16" text-anchor="middle" font-weight="bold">Developer Workstation</text>
  <text x="150" y="140" font-family="Arial" font-size="14" text-anchor="middle">Code & Configuration</text>
  
  <!-- Version Control -->
  <rect x="50" y="190" width="200" height="80" rx="10" ry="10" fill="#ADD8E6" stroke="#000" stroke-width="2"/>
  <text x="150" y="220" font-family="Arial" font-size="16" text-anchor="middle" font-weight="bold">Version Control</text>
  <text x="150" y="250" font-family="Arial" font-size="14" text-anchor="middle">Git Repository</text>
  
  <!-- CI/CD Pipeline -->
  <rect x="50" y="320" width="800" height="100" rx="10" ry="10" fill="#ADD8E6" stroke="#000" stroke-width="2"/>
  <text x="450" y="345" font-family="Arial" font-size="16" text-anchor="middle" font-weight="bold">CI/CD Pipeline</text>
  
  <!-- CI/CD Components -->
  <rect x="80" y="360" width="100" height="40" rx="5" ry="5" fill="#FFFFFF" stroke="#000"/>
  <text x="130" y="385" font-family="Arial" font-size="14" text-anchor="middle">Build</text>
  
  <rect x="190" y="360" width="100" height="40" rx="5" ry="5" fill="#FFD700" stroke="#000"/>
  <text x="240" y="385" font-family="Arial" font-size="14" text-anchor="middle">Test Execution</text>
  
  <rect x="300" y="360" width="100" height="40" rx="5" ry="5" fill="#FFFFFF" stroke="#000"/>
  <text x="350" y="385" font-family="Arial" font-size="14" text-anchor="middle">Package</text>
  
  <rect x="410" y="360" width="100" height="40" rx="5" ry="5" fill="#FFD700" stroke="#000"/>
  <text x="460" y="385" font-family="Arial" font-size="14" text-anchor="middle">Helm Deployment</text>
  
  <rect x="520" y="360" width="100" height="40" rx="5" ry="5" fill="#FFFFFF" stroke="#000"/>
  <text x="570" y="385" font-family="Arial" font-size="14" text-anchor="middle">Validation</text>
  
  <rect x="630" y="360" width="100" height="40" rx="5" ry="5" fill="#FFFFFF" stroke="#000"/>
  <text x="680" y="385" font-family="Arial" font-size="14" text-anchor="middle">Release</text>
  
  <rect x="740" y="360" width="80" height="40" rx="5" ry="5" fill="#90EE90" stroke="#000"/>
  <text x="780" y="385" font-family="Arial" font-size="14" text-anchor="middle">Metrics</text>
  
  <!-- New Components Section -->
  <rect x="300" y="80" width="550" height="220" rx="10" ry="10" fill="#f0f0f0" stroke="#000" stroke-width="2"/>
  <text x="575" y="110" font-family="Arial" font-size="18" text-anchor="middle" font-weight="bold">Optimization Components</text>
  
  <!-- Helm Chart Optimization -->
  <rect x="320" y="130" width="160" height="150" rx="5" ry="5" fill="#90EE90" stroke="#000"/>
  <text x="400" y="155" font-family="Arial" font-size="16" text-anchor="middle" font-weight="bold">Helm Chart Optimization</text>
  
  <rect x="330" y="170" width="140" height="30" rx="5" ry="5" fill="#FFFFFF" stroke="#000"/>
  <text x="400" y="190" font-family="Arial" font-size="12" text-anchor="middle">Modularization Engine</text>
  
  <rect x="330" y="210" width="140" height="30" rx="5" ry="5" fill="#FFFFFF" stroke="#000"/>
  <text x="400" y="230" font-family="Arial" font-size="12" text-anchor="middle">Incremental Deployment</text>
  
  <rect x="330" y="250" width="140" height="20" rx="5" ry="5" fill="#FFFFFF" stroke="#000"/>
  <text x="400" y="265" font-family="Arial" font-size="10" text-anchor="middle">Template Caching</text>
  
  <!-- Testing Framework -->
  <rect x="500" y="130" width="160" height="150" rx="5" ry="5" fill="#90EE90" stroke="#000"/>
  <text x="580" y="155" font-family="Arial" font-size="16" text-anchor="middle" font-weight="bold">Testing Framework</text>
  
  <rect x="510" y="170" width="140" height="30" rx="5" ry="5" fill="#FFFFFF" stroke="#000"/>
  <text x="580" y="190" font-family="Arial" font-size="12" text-anchor="middle">Test Automation</text>
  
  <rect x="510" y="210" width="140" height="30" rx="5" ry="5" fill="#FFFFFF" stroke="#000"/>
  <text x="580" y="230" font-family="Arial" font-size="12" text-anchor="middle">Flakiness Detection</text>
  
  <rect x="510" y="250" width="140" height="20" rx="5" ry="5" fill="#FFFFFF" stroke="#000"/>
  <text x="580" y="265" font-family="Arial" font-size="10" text-anchor="middle">Test Data Management</text>
  
  <!-- Metrics System -->
  <rect x="680" y="130" width="160" height="150" rx="5" ry="5" fill="#90EE90" stroke="#000"/>
  <text x="760" y="155" font-family="Arial" font-size="16" text-anchor="middle" font-weight="bold">Metrics System</text>
  
  <rect x="690" y="170" width="140" height="30" rx="5" ry="5" fill="#FFFFFF" stroke="#000"/>
  <text x="760" y="190" font-family="Arial" font-size="12" text-anchor="middle">Performance Tracking</text>
  
  <rect x="690" y="210" width="140" height="30" rx="5" ry="5" fill="#FFFFFF" stroke="#000"/>
  <text x="760" y="230" font-family="Arial" font-size="12" text-anchor="middle">Reliability Analytics</text>
  
  <rect x="690" y="250" width="140" height="20" rx="5" ry="5" fill="#FFFFFF" stroke="#000"/>
  <text x="760" y="265" font-family="Arial" font-size="10" text-anchor="middle">Dashboard Visualization</text>
  
  <!-- Kubernetes Zone -->
  <rect x="50" y="450" width="800" height="120" rx="10" ry="10" fill="#ADD8E6" stroke="#000" stroke-width="2"/>
  <text x="450" y="475" font-family="Arial" font-size="16" text-anchor="middle" font-weight="bold">Kubernetes Environment</text>
  
  <!-- K8s Components -->
  <rect x="80" y="490" width="110" height="60" rx="5" ry="5" fill="#FFFFFF" stroke="#000"/>
  <text x="135" y="510" font-family="Arial" font-size="14" text-anchor="middle">API Services</text>
  <text x="135" y="530" font-family="Arial" font-size="12" text-anchor="middle">Modular Chart</text>
  
  <rect x="200" y="490" width="110" height="60" rx="5" ry="5" fill="#FFFFFF" stroke="#000"/>
  <text x="255" y="510" font-family="Arial" font-size="14" text-anchor="middle">Frontend</text>
  <text x="255" y="530" font-family="Arial" font-size="12" text-anchor="middle">Modular Chart</text>
  
  <rect x="320" y="490" width="110" height="60" rx="5" ry="5" fill="#FFFFFF" stroke="#000"/>
  <text x="375" y="510" font-family="Arial" font-size="14" text-anchor="middle">Database</text>
  <text x="375" y="530" font-family="Arial" font-size="12" text-anchor="middle">Modular Chart</text>
  
  <rect x="440" y="490" width="110" height="60" rx="5" ry="5" fill="#FFFFFF" stroke="#000"/>
  <text x="495" y="510" font-family="Arial" font-size="14" text-anchor="middle">Jobs</text>
  <text x="495" y="530" font-family="Arial" font-size="12" text-anchor="middle">Modular Chart</text>
  
  <rect x="560" y="490" width="110" height="60" rx="5" ry="5" fill="#FFFFFF" stroke="#000"/>
  <text x="615" y="510" font-family="Arial" font-size="14" text-anchor="middle">Shared</text>
  <text x="615" y="530" font-family="Arial" font-size="12" text-anchor="middle">Modular Chart</text>
  
  <rect x="680" y="490" width="150" height="60" rx="5" ry="5" fill="#90EE90" stroke="#000"/>
  <text x="755" y="510" font-family="Arial" font-size="14" text-anchor="middle">Performance Monitor</text>
  <text x="755" y="530" font-family="Arial" font-size="12" text-anchor="middle">Real-time Metrics</text>
  
  <!-- Arrows -->
  <line x1="150" y1="160" x2="150" y2="190" stroke="#000" stroke-width="2" />
  <polygon points="150,190 145,180 155,180" fill="#000" />
  
  <line x1="150" y1="270" x2="150" y2="320" stroke="#000" stroke-width="2" />
  <polygon points="150,320 145,310 155,310" fill="#000" />
  
  <line x1="450" y1="420" x2="450" y2="450" stroke="#000" stroke-width="2" />
  <polygon points="450,450 445,440 455,440" fill="#000" />
  
  <!-- Connecting lines between optimization components and pipeline -->
  <line x1="400" y1="280" x2="400" y2="320" stroke="#000" stroke-width="2" stroke-dasharray="5,5" />
  <polygon points="400,320 395,310 405,310" fill="#000" />
  
  <line x1="580" y1="280" x2="580" y2="320" stroke="#000" stroke-width="2" stroke-dasharray="5,5" />
  <polygon points="580,320 575,310 585,310" fill="#000" />
  
  <line x1="760" y1="280" x2="760" y2="320" stroke="#000" stroke-width="2" stroke-dasharray="5,5" />
  <polygon points="760,320 755,310 765,310" fill="#000" />
  
  <!-- Feedback loop -->
  <path d="M830 400 C870 400, 870 520, 450 570" fill="none" stroke="#000" stroke-width="2" stroke-dasharray="5,5" />
  <polygon points="450,570 460,565 460,575" fill="#000" />
  <text x="860" y="480" font-family="Arial" font-size="14" transform="rotate(90 860,480)">Feedback Loop</text>
</svg>